<svg class="fill-current" width="18" height="18" viewBox="0 0 18 18" fill="#FFFFFF" xmlns="http://www.w3.org/2000/svg">
<path d="M2.25 11.25C3.49264 11.25 4.5 10.2426 4.5 9C4.5 7.75736 3.49264 6.75 2.25 6.75C1.00736 6.75 0 7.75736 0 9C0 10.2426 1.00736 11.25 2.25 11.25Z" fill=""></path><path d="M9 11.25C10.2426 11.25 11.25 10.2426 11.25 9C11.25 7.75736 10.2426 6.75 9 6.75C7.75736 6.75 6.75 7.75736 6.75 9C6.75 10.2426 7.75736 11.25 9 11.25Z" fill=""></path><path d="M15.75 11.25C16.9926 11.25 18 10.2426 18 9C18 7.75736 16.9926 6.75 15.75 6.75C14.5074 6.75 13.5 7.75736 13.5 9C13.5 10.2426 14.5074 11.25 15.75 11.25Z" fill="">
</path>
</svg>